<svg xmlns="http://www.w3.org/2000/svg" width="400" height="400" viewBox="0 0 400 400" version="1.1"><path d="M 188.207 5.584 C 175.407 11.963, 165.442 31.195, 160.494 59.073 C 159.574 64.258, 158.572 76.487, 158.267 86.250 C 157.963 96.012, 157.440 103.950, 157.107 103.889 C 156.773 103.828, 152.916 99.890, 148.535 95.139 C 122.815 67.244, 93.441 46.101, 69.114 37.975 C 61.279 35.358, 58.140 34.832, 50.114 34.790 C 42.131 34.748, 39.684 35.125, 35.687 37.009 C 23.570 42.724, 18.833 53.409, 20.965 70.221 C 23.852 92.992, 40.672 121.212, 69.411 151.500 C 74.107 156.450, 77.399 160.573, 76.725 160.663 C 76.051 160.752, 71.450 161.349, 66.500 161.989 C 35.170 166.041, 14.029 174.695, 4.995 187.165 C -9.261 206.845, 8.788 227.468, 48.153 236.476 C 55.450 238.146, 79.012 240.975, 85.750 240.990 L 90 241 90 206.500 C 90 187.525, 90.234 172, 90.519 172 C 90.805 172, 94.742 175.210, 99.269 179.134 C 107.599 186.353, 134.449 206.838, 136.750 207.730 C 139.317 208.724, 137.700 210.650, 129.710 216.118 C 117.441 224.514, 98.126 240.225, 83.500 253.704 C 47.860 286.551, 24.818 321.246, 21.022 347.777 C 19.299 359.821, 21.294 368.849, 27.153 375.522 C 32.236 381.311, 37.164 383.307, 47.577 383.797 C 66.845 384.702, 89.081 375.087, 115.649 354.362 C 138.609 336.451, 172.270 299.501, 191.986 270.568 L 195.346 265.636 196.923 268.055 C 200.883 274.130, 216.445 294.486, 224.402 304 L 233.184 314.500 195.500 314.762 L 157.815 315.024 158.470 324.762 C 159.850 345.268, 165.229 366.454, 172.179 378.749 C 176.501 386.395, 184.297 394.499, 189.252 396.497 C 194.585 398.646, 201.380 398.704, 206.318 396.640 C 211.455 394.494, 219.790 385.754, 223.702 378.410 C 230.056 366.484, 237 339.629, 237 326.982 C 237 319.251, 237.530 319.449, 249.889 331.798 C 273.590 355.481, 297.073 371.895, 319.152 380.213 C 326.824 383.103, 328.513 383.364, 340 383.429 C 351.550 383.495, 352.839 383.310, 356.953 381 C 362.155 378.080, 367.484 371.518, 368.954 366.225 C 370.502 360.652, 370.213 348.479, 368.357 341.064 C 359.558 305.902, 323.339 262.794, 266.985 220.409 C 261.201 216.059, 255.441 211.825, 254.184 211 C 251.939 209.526, 252.112 209.345, 264.200 200.513 C 270.965 195.570, 281.788 187.125, 288.250 181.747 C 296.580 174.814, 300.012 172.482, 300.040 173.734 C 300.063 174.705, 300.175 190.125, 300.290 208 L 300.500 240.500 304.500 240.851 C 310.430 241.371, 334.192 239.055, 344.500 236.951 C 368.951 231.962, 385.837 222.961, 392.695 211.258 C 394.814 207.641, 395.375 205.400, 395.375 200.544 C 395.375 195.138, 394.934 193.740, 391.686 188.845 C 385.279 179.193, 371.133 170.948, 353.156 166.388 C 341.820 163.512, 325.579 161, 318.324 161 C 315.396 161, 313 160.729, 313 160.398 C 313 160.067, 318.005 154.555, 324.122 148.150 C 347.353 123.823, 363.429 98.150, 368.503 77.272 C 370.848 67.625, 370.250 54.222, 367.214 48.357 C 364.468 43.054, 358.171 37.667, 352.853 36.074 C 347.699 34.530, 333.663 34.489, 327.842 36.002 C 304.436 42.084, 278.064 59.276, 250.333 86.528 L 238 98.648 237.991 92.074 C 237.957 65.438, 231.796 36.815, 222.832 21.640 C 212.885 4.801, 200.917 -0.749, 188.207 5.584 M 163.220 111.250 C 169.927 118.923, 185.195 138.471, 190.547 146.238 C 192.721 149.394, 194.772 151.982, 195.104 151.988 C 195.437 151.995, 200.147 146.037, 205.572 138.750 C 210.996 131.463, 218.845 121.444, 223.012 116.487 C 227.180 111.529, 230.933 106.917, 231.354 106.237 C 231.956 105.263, 224.213 105, 194.937 105 L 157.756 105 163.220 111.250" stroke="none" fill="#eafaad" fill-rule="evenodd"/><path d="M 0.044 98.750 C 0.081 182.489, 0.291 196.930, 1.427 193.748 C 7.107 177.832, 29.858 166.728, 66.500 161.989 C 71.450 161.349, 76.051 160.752, 76.725 160.663 C 77.399 160.573, 74.107 156.450, 69.411 151.500 C 40.672 121.212, 23.852 92.992, 20.965 70.221 C 18.833 53.409, 23.570 42.724, 35.687 37.009 C 39.684 35.125, 42.131 34.748, 50.114 34.790 C 58.140 34.832, 61.279 35.358, 69.114 37.975 C 93.441 46.101, 122.815 67.244, 148.535 95.139 C 152.916 99.890, 156.773 103.828, 157.107 103.889 C 157.440 103.950, 157.963 96.012, 158.267 86.250 C 159.098 59.638, 163.189 40.131, 171.147 24.834 C 176.321 14.889, 181.689 8.832, 188.207 5.584 C 207.705 -4.132, 226.002 14.958, 234.027 53.390 C 236.119 63.404, 237.978 81.547, 237.991 92.074 L 238 98.648 250.333 86.528 C 278.064 59.276, 304.436 42.084, 327.842 36.002 C 333.663 34.489, 347.699 34.530, 352.853 36.074 C 358.171 37.667, 364.468 43.054, 367.214 48.357 C 370.250 54.222, 370.848 67.625, 368.503 77.272 C 363.429 98.150, 347.353 123.823, 324.122 148.150 C 318.005 154.555, 313 160.067, 313 160.398 C 313 160.729, 315.396 161, 318.324 161 C 325.579 161, 341.820 163.512, 353.156 166.388 C 371.133 170.948, 385.279 179.193, 391.686 188.845 C 394.934 193.740, 395.375 195.138, 395.375 200.544 C 395.375 205.400, 394.814 207.641, 392.695 211.258 C 385.837 222.961, 368.951 231.962, 344.500 236.951 C 334.192 239.055, 310.430 241.371, 304.500 240.851 L 300.500 240.500 300.290 208 C 300.175 190.125, 300.063 174.705, 300.040 173.734 C 300.012 172.482, 296.580 174.814, 288.250 181.747 C 281.787 187.125, 270.965 195.570, 264.200 200.513 C 252.112 209.345, 251.939 209.526, 254.184 211 C 255.441 211.825, 261.201 216.059, 266.985 220.409 C 323.339 262.794, 359.558 305.902, 368.357 341.064 C 370.213 348.479, 370.502 360.652, 368.954 366.225 C 367.484 371.518, 362.155 378.080, 356.953 381 C 352.839 383.310, 351.550 383.495, 340 383.429 C 328.513 383.364, 326.824 383.103, 319.152 380.213 C 297.073 371.895, 273.590 355.481, 249.889 331.798 C 237.530 319.449, 237 319.251, 237 326.982 C 237 339.629, 230.056 366.484, 223.702 378.410 C 219.790 385.754, 211.455 394.494, 206.318 396.640 C 201.380 398.704, 194.585 398.646, 189.252 396.497 C 184.297 394.499, 176.501 386.395, 172.179 378.749 C 165.229 366.454, 159.850 345.268, 158.470 324.762 L 157.815 315.024 195.500 314.762 L 233.184 314.500 224.402 304 C 216.445 294.486, 200.883 274.130, 196.923 268.055 L 195.346 265.636 191.986 270.568 C 172.270 299.501, 138.609 336.451, 115.649 354.362 C 89.081 375.087, 66.845 384.702, 47.577 383.797 C 37.164 383.307, 32.236 381.311, 27.153 375.522 C 23.166 370.981, 21.490 366.955, 20.692 360 C 17.598 333.052, 41.744 292.189, 83.500 253.704 C 98.126 240.225, 117.441 224.514, 129.710 216.118 C 137.700 210.650, 139.317 208.724, 136.750 207.730 C 134.449 206.838, 107.599 186.353, 99.269 179.134 C 94.742 175.210, 90.805 172, 90.519 172 C 90.234 172, 90 187.525, 90 206.500 L 90 241 85.750 240.990 C 79.012 240.975, 55.450 238.146, 48.153 236.476 C 22.575 230.623, 5.123 219.562, 0.853 206.500 C 0.494 205.400, 0.155 248.489, 0.100 302.252 L -0 400.005 200.250 399.752 L 400.500 399.500 400.741 199.750 L 400.983 0 200.491 0 L 0 0 0.044 98.750 M 0.481 99 C 0.481 153.175, 0.602 175.337, 0.750 148.250 C 0.898 121.162, 0.898 76.837, 0.750 49.750 C 0.602 22.662, 0.481 44.825, 0.481 99 M 163.220 111.250 C 169.927 118.923, 185.195 138.471, 190.547 146.238 C 192.721 149.394, 194.772 151.982, 195.104 151.988 C 195.437 151.995, 200.147 146.037, 205.572 138.750 C 210.996 131.463, 218.845 121.444, 223.012 116.487 C 227.180 111.529, 230.933 106.917, 231.354 106.237 C 231.956 105.263, 224.213 105, 194.937 105 L 157.756 105 163.220 111.250 M 0.481 302.500 C 0.481 356.400, 0.602 378.303, 0.750 351.174 C 0.898 324.045, 0.898 279.945, 0.750 253.174 C 0.602 226.403, 0.481 248.600, 0.481 302.500" stroke="none" fill="#050604" fill-rule="evenodd"/></svg>